<svg width="105" height="296" viewBox="0 0 105 296" fill="none" xmlns="http://www.w3.org/2000/svg">
<path d="M35.6265 0.927347C34.4018 1.2155 33.3933 1.7774 32.3992 2.74272C30.0075 5.03355 29.5032 8.50581 31.1169 11.445L31.5923 12.3383L30.9296 12.5112C28.3218 13.2171 26.0021 15.4503 25.0368 18.2022C24.6478 19.3548 24.6334 19.3692 24.5902 23.7348C24.5614 26.1409 24.5758 28.2588 24.619 28.4461C24.8639 29.3682 25.9877 29.6852 26.6505 29.008L27.0107 28.6622V24.6425C27.0107 22.4237 27.0827 20.2625 27.1548 19.8447C27.4573 18.2166 28.6243 16.5021 30.0507 15.6088C31.5635 14.6435 33.8544 14.3553 35.6553 14.874C36.7647 15.191 38.6521 15.1334 39.6895 14.7444C40.8997 14.2977 43.3058 14.7155 44.7178 15.6088C46.1441 16.5021 47.3112 18.2166 47.6137 19.8447C47.6858 20.2625 47.7578 22.4237 47.7578 24.6425V28.6622L48.118 29.008C48.7808 29.6852 49.9046 29.3682 50.1495 28.4461C50.1927 28.2588 50.2071 26.1409 50.1783 23.7348C50.1351 19.3692 50.1207 19.3548 49.7317 18.2022C48.7663 15.4647 46.6772 13.4044 43.9974 12.5832L43.1762 12.3239L43.666 11.445C45.2365 8.56344 44.7754 5.10559 42.4702 2.81476C40.698 1.0282 38.1046 0.322224 35.6265 0.927347ZM39.3293 3.59278C40.237 4.02501 41.2599 5.03355 41.7066 5.95564C42.1964 6.93537 42.2108 8.79397 41.7498 9.80251C41.3176 10.7534 40.3666 11.7187 39.4157 12.1798C38.7242 12.5256 38.436 12.5832 37.3842 12.5832C36.3325 12.5832 36.0443 12.5256 35.3528 12.1798C31.5059 10.2924 31.8661 4.86066 35.9435 3.37666C36.8512 3.04528 38.3928 3.14614 39.3293 3.59278Z" fill="#04364A"/>
<path d="M21.9826 11.733C15.9601 14.9603 11.2344 19.9022 8.19438 26.1263C7.15702 28.2586 5.97559 31.4716 5.97559 32.1631C5.97559 32.7394 6.55189 33.2869 7.17143 33.3013C7.96385 33.3157 8.20878 32.97 8.91476 30.8664C10.4564 26.2848 12.7616 22.5676 16.2051 19.1385C18.2077 17.1215 20.2969 15.5366 22.8182 14.1102C24.4463 13.1882 24.72 12.972 24.8209 12.5974C24.965 12.0644 24.7777 11.4016 24.4175 11.2143C23.8844 10.9261 23.1928 11.0702 21.9826 11.733Z" fill="#04364A"/>
<path d="M50.2072 11.3579C49.8326 11.7325 49.8182 12.6979 50.1784 13.0292C50.308 13.1445 51.2734 13.7352 52.2963 14.3259C54.76 15.7523 56.5322 17.1066 58.5637 19.1381C62.0215 22.5815 64.3556 26.3708 65.9116 31.0389C66.243 32.0042 66.632 32.9119 66.7905 33.056C67.2227 33.445 68.0584 33.3729 68.4618 32.8975C68.9084 32.3788 68.8796 32.0906 68.2168 30.0447C67.093 26.6877 64.8887 22.6392 62.6411 19.8585C60.0621 16.6744 56.4457 13.692 52.7862 11.7325C51.4174 10.9833 50.6826 10.8825 50.2072 11.3579Z" fill="#04364A"/>
<path d="M29.8202 21.905C29.2007 22.2363 29.1719 22.3804 29.1719 25.5789C29.1719 28.6622 29.1719 28.6622 29.5321 29.008C29.7482 29.2241 30.0507 29.3682 30.3101 29.3682C31.5059 29.3682 31.6212 29.0512 31.6212 25.4781V22.5677L31.2034 22.1499C30.7567 21.7177 30.3101 21.6312 29.8202 21.905Z" fill="#04364A"/>
<path d="M43.5643 22.1499L43.1465 22.5677V25.4781C43.1465 29.0512 43.2617 29.3682 44.4576 29.3682C44.7169 29.3682 45.0195 29.2241 45.2356 29.008C45.5958 28.6622 45.5958 28.6622 45.5958 25.6366C45.5958 23.9797 45.5526 22.5101 45.5094 22.3804C45.3941 22.1067 44.7169 21.7321 44.2991 21.7321C44.1262 21.7321 43.7948 21.9194 43.5643 22.1499Z" fill="#04364A"/>
<path d="M11.349 34.9152C9.0726 35.5347 7.17078 37.3068 6.40717 39.5256C5.98934 40.7359 5.9029 42.0614 6.16224 43.2861C6.37835 44.2802 6.95466 45.6201 7.35808 46.0956C7.54538 46.3117 7.51656 46.3405 7.01229 46.4269C6.69532 46.4702 5.9029 46.7871 5.24014 47.1185C3.09339 48.1847 1.53736 50.0721 0.802562 52.4782C0.528815 53.3859 0.5 53.8037 0.5 58.1116V62.7797L0.874601 63.0679C1.36446 63.4569 1.94077 63.4569 2.43064 63.0679L2.80524 62.7797V59.0769C2.80524 57.0454 2.87727 54.8843 2.94931 54.308C3.32391 51.484 5.47066 49.1788 8.19373 48.6889C9.38957 48.4728 10.2973 48.4872 11.032 48.7466C12.1558 49.15 13.6831 49.1788 15.0518 48.833C16.3917 48.5016 17.0977 48.4584 18.2359 48.6745C20.6132 49.1212 22.5726 50.8645 23.2786 53.1553C23.5235 53.9334 23.5524 54.5097 23.5524 58.2845V62.5348L23.9702 62.9526C24.5177 63.4857 25.1516 63.5145 25.6415 63.0102L26.0017 62.6644V58.2269C26.0017 53.1842 25.9296 52.6367 24.9787 50.8357C23.9702 48.8762 22.0684 47.2626 20.0225 46.6142L18.9851 46.2973L19.4029 45.6489C20.3827 44.0785 20.6852 41.6003 20.0945 39.7129C19.3741 37.3789 17.4579 35.5347 15.1238 34.9152C14.0721 34.6558 12.3576 34.6558 11.349 34.9152ZM15.2679 37.6094C16.1612 38.0705 17.0977 39.007 17.5299 39.8714C17.8037 40.4189 17.8613 40.7647 17.8613 41.9029C17.8613 43.4589 17.6308 44.0497 16.6078 45.1591C15.7146 46.1244 14.6628 46.571 13.2508 46.571C12.2855 46.5854 11.9685 46.5278 11.2914 46.1964C9.2743 45.2023 8.13609 43.0411 8.55392 41.0096C8.8997 39.396 10.182 37.912 11.7236 37.3789C12.7178 37.0331 14.3458 37.1484 15.2679 37.6094Z" fill="#04364A"/>
<path d="M59.5856 34.9289C57.2948 35.5485 55.3785 37.4071 54.6726 39.7123C54.0818 41.5997 54.3844 44.0778 55.3641 45.6483L55.7819 46.2966L54.7446 46.6136C52.18 47.4204 50.0477 49.6104 49.0968 52.3767C48.9095 52.953 48.8518 53.9183 48.8086 57.8516L48.751 62.635L49.1112 63.0096C49.6875 63.5859 50.7248 63.413 51.0562 62.6926C51.1571 62.4621 51.2147 60.9349 51.2147 58.183C51.2147 54.509 51.2435 53.9327 51.4884 53.1547C52.0215 51.4258 53.2606 49.985 54.8599 49.2358C56.4879 48.4866 57.8567 48.3569 59.6432 48.818C60.2627 48.9765 61.1128 49.1061 61.5162 49.1061C61.9196 49.1061 62.7697 48.9765 63.3892 48.818C64.6715 48.4866 65.3487 48.4578 66.5733 48.6883C68.8642 49.1061 70.7516 50.763 71.544 53.0106C71.8466 53.8751 71.8754 54.2209 71.933 58.3703L71.9906 62.7935L72.3508 63.0816C72.8263 63.4562 73.4026 63.4418 73.8925 63.0672L74.2671 62.7791V58.1398C74.2671 52.9818 74.2238 52.6936 73.3161 50.8351C72.5669 49.3366 71.1262 47.9103 69.5269 47.1179C68.8642 46.7865 68.0717 46.4695 67.7548 46.4263C67.2505 46.3398 67.2217 46.311 67.409 46.0949C67.8124 45.6195 68.3887 44.2795 68.6048 43.2854C69.3828 39.597 67.0632 35.8798 63.3604 34.9145C62.3375 34.6408 60.6085 34.6552 59.5856 34.9289ZM63.4757 37.5511C64.5418 38.0698 65.2766 38.8046 65.7953 39.842C66.703 41.6861 66.3428 43.732 64.8876 45.2016C64.5707 45.5186 63.9367 45.9652 63.4901 46.1814C62.7985 46.5271 62.4959 46.5848 61.5162 46.5848C60.5365 46.5704 60.2339 46.5127 59.528 46.1525C58.6059 45.6915 57.7414 44.8414 57.2371 43.8905C56.9634 43.3719 56.9057 43.0549 56.9057 41.9023C56.9057 40.7641 56.9634 40.4183 57.2371 39.8708C57.799 38.7182 59.0237 37.6952 60.2916 37.2774C60.9543 37.0613 62.7841 37.2198 63.4757 37.5511Z" fill="#04364A"/>
<path d="M5.60074 55.9072C5.03884 56.1666 4.9668 56.6276 4.9668 59.6388V62.5348L5.38462 62.9526C5.93211 63.4857 6.56605 63.5145 7.05592 63.0102C7.41611 62.6644 7.41611 62.6644 7.41611 59.5524C7.41611 56.4403 7.41611 56.4403 7.05592 56.0945C6.68132 55.7199 6.13382 55.6479 5.60074 55.9072Z" fill="#04364A"/>
<path d="M19.4605 56.0366L19.0859 56.3247V59.5521V62.7794L19.4605 63.0675C19.9648 63.471 20.5699 63.4421 21.0598 63.0243L21.4632 62.6785V59.5521V56.4256L21.0598 56.0798C20.5699 55.662 19.9648 55.6332 19.4605 56.0366Z" fill="#04364A"/>
<path d="M53.7506 56.0366L53.376 56.3248V59.5521V62.7795L53.7506 63.0676C54.2404 63.4566 54.8167 63.4566 55.3066 63.0676L55.6812 62.7795V59.5521V56.3248L55.3066 56.0366C55.0905 55.8638 54.7447 55.7341 54.5286 55.7341C54.3125 55.7341 53.9667 55.8638 53.7506 56.0366Z" fill="#04364A"/>
<path d="M67.7127 56.0948C67.3525 56.4406 67.3525 56.4406 67.3525 59.5527C67.3525 62.6647 67.3525 62.6647 67.7127 63.0105C68.2746 63.5868 69.312 63.4139 69.6434 62.6935C69.7442 62.4774 69.8019 61.296 69.8019 59.5527C69.8019 57.8093 69.7442 56.6279 69.6434 56.4118C69.312 55.6914 68.2746 55.5185 67.7127 56.0948Z" fill="#04364A"/>
<path d="M21.493 66.5976C21.3634 66.6984 21.1761 66.9866 21.104 67.2171C20.7582 68.168 21.349 68.7011 24.0576 69.8825C32.7455 73.6718 42.1969 73.6718 50.7551 69.8681C53.3197 68.7299 53.968 68.1824 53.7375 67.3035C53.6223 66.8425 53.1036 66.3959 52.6569 66.3959C52.4408 66.3959 51.4611 66.7849 50.4814 67.2459C47.6575 68.6002 45.1217 69.3927 41.9232 69.9546C39.9061 70.3004 34.8634 70.3004 32.8463 69.9546C29.6478 69.3927 27.1121 68.6002 24.2881 67.2459C22.4728 66.3815 21.9397 66.2518 21.493 66.5976Z" fill="#04364A"/>
<path d="M61.1984 257.757L55.6082 246.57L57.871 246.763L66.1299 254.574L61.1984 257.757Z" fill="#0C8EC2"/>
<path d="M70.9742 247.305L47.1273 272.899C46.869 273.176 46.684 273.513 46.5888 273.879C46.4937 274.245 46.4915 274.63 46.5824 274.997C46.6733 275.364 46.8545 275.703 47.1096 275.983C47.3647 276.263 47.6857 276.475 48.0435 276.6L100.988 295.099C101.379 295.235 101.8 295.263 102.206 295.179C102.612 295.094 102.987 294.901 103.292 294.62C103.596 294.339 103.818 293.98 103.933 293.582C104.049 293.185 104.053 292.763 103.947 292.363L88.3541 233.78C88.2494 233.386 88.0408 233.028 87.7502 232.742C87.4596 232.456 87.0975 232.253 86.7016 232.154C86.3058 232.055 85.8906 232.064 85.4995 232.18C85.1083 232.296 84.7553 232.514 84.4774 232.812L70.9742 247.305Z" fill="#33ADDD"/>
<path d="M96.4375 287.248L64.2692 254.508L55.7381 246.732C55.6032 246.606 55.5128 246.44 55.4803 246.258C55.4478 246.076 55.4748 245.889 55.5575 245.724C55.6402 245.559 55.7741 245.425 55.9392 245.342C56.1043 245.259 56.2918 245.231 56.4739 245.263L70.8454 247.445L96.4375 287.248Z" fill="#0279A8"/>
<path d="M21.4629 66.7625C21.4626 66.7176 21.4709 66.6732 21.4874 66.6315C21.5223 66.5406 21.5918 66.4672 21.6808 66.4275C21.7698 66.3878 21.8709 66.3849 21.962 66.4196C22.3165 66.5543 22.6721 66.6951 23.0204 66.836C23.0664 66.8532 23.1085 66.8794 23.1442 66.9131C23.1798 66.9468 23.2084 66.9873 23.2281 67.0322C23.2479 67.0771 23.2584 67.1255 23.2592 67.1746C23.2599 67.2236 23.2507 67.2723 23.2323 67.3177C23.2139 67.3632 23.1865 67.4045 23.1519 67.4393C23.1172 67.474 23.0759 67.5014 23.0305 67.52C22.985 67.5386 22.9363 67.5478 22.8871 67.5473C22.838 67.5467 22.7895 67.5364 22.7445 67.5168C22.3999 67.3772 22.0479 67.2388 21.6996 67.1054C21.63 67.0788 21.5701 67.0319 21.5279 66.9706C21.4856 66.9094 21.4629 66.8368 21.4629 66.7625ZM21.7437 147.786V147.763C21.7756 147.259 21.8271 146.748 21.8982 146.241C21.9141 146.146 21.9662 146.062 22.0435 146.005C22.1208 145.949 22.2171 145.924 22.312 145.938C22.4069 145.951 22.4929 146.001 22.5517 146.076C22.6105 146.152 22.6374 146.247 22.6268 146.342C22.5593 146.832 22.5041 147.322 22.4784 147.812C22.4754 147.909 22.4339 148.001 22.3628 148.068C22.2917 148.135 22.197 148.171 22.0994 148.168C22.0018 148.165 21.9094 148.124 21.8424 148.053C21.7755 147.982 21.7396 147.887 21.7425 147.79L21.7437 147.786ZM21.8921 151.529C21.8888 151.481 21.8951 151.433 21.9105 151.387C21.9259 151.341 21.9503 151.299 21.9821 151.262C22.0139 151.226 22.0526 151.196 22.096 151.175C22.1394 151.153 22.1866 151.14 22.2349 151.137C22.2832 151.134 22.3317 151.14 22.3776 151.155C22.4235 151.171 22.4659 151.195 22.5024 151.227C22.5389 151.259 22.5688 151.297 22.5904 151.341C22.6119 151.384 22.6247 151.431 22.628 151.479C22.6954 151.959 22.7837 152.447 22.8892 152.928C22.9102 153.023 22.8925 153.123 22.8399 153.205C22.7873 153.287 22.7043 153.345 22.609 153.366C22.5137 153.387 22.4139 153.369 22.3317 153.316C22.2495 153.264 22.1915 153.181 22.1705 153.086C22.0601 152.586 21.9694 152.079 21.8995 151.581L21.8921 151.529ZM22.7506 142.642C22.7508 142.603 22.757 142.564 22.769 142.528C22.9248 142.053 23.1002 141.571 23.289 141.095C23.3251 141.004 23.3958 140.932 23.4855 140.893C23.5752 140.855 23.6766 140.853 23.7673 140.889C23.8581 140.925 23.9308 140.996 23.9694 141.085C24.0081 141.175 24.0095 141.276 23.9734 141.367C23.7894 141.828 23.6189 142.295 23.4681 142.757C23.4408 142.84 23.3847 142.91 23.3099 142.956C23.2352 143.001 23.1466 143.019 23.0602 143.005C22.9738 142.991 22.8951 142.947 22.8384 142.88C22.7816 142.814 22.7505 142.729 22.7506 142.642ZM23.2854 156.583C23.2857 156.498 23.3154 156.416 23.3695 156.351C23.4235 156.285 23.4986 156.241 23.582 156.224C23.6653 156.208 23.7518 156.221 23.8267 156.261C23.9016 156.301 23.9604 156.365 23.993 156.444C24.1782 156.893 24.383 157.346 24.6062 157.791C24.6276 157.834 24.6401 157.882 24.6431 157.93C24.646 157.979 24.6394 158.027 24.6236 158.073C24.6078 158.119 24.583 158.162 24.5508 158.198C24.5186 158.234 24.4795 158.264 24.4358 158.285C24.392 158.307 24.3445 158.319 24.296 158.322C24.2474 158.325 24.1987 158.319 24.1527 158.303C24.1067 158.287 24.0643 158.262 24.0278 158.23C23.9914 158.198 23.9616 158.159 23.9403 158.115C23.7158 157.656 23.5049 157.188 23.3136 156.724C23.2954 156.679 23.2862 156.632 23.2866 156.583H23.2854ZM24.8797 137.847C24.8798 137.785 24.8958 137.723 24.9263 137.669C25.1716 137.234 25.4292 136.794 25.699 136.361C25.7242 136.319 25.7573 136.283 25.7966 136.254C25.8359 136.226 25.8805 136.205 25.9278 136.194C25.9751 136.182 26.0242 136.18 26.0722 136.188C26.1203 136.196 26.1663 136.213 26.2077 136.239C26.249 136.264 26.2849 136.298 26.3132 136.337C26.3415 136.377 26.3617 136.421 26.3725 136.469C26.3834 136.516 26.3847 136.565 26.3765 136.613C26.3682 136.661 26.3506 136.707 26.3245 136.748C26.0608 137.171 25.8069 137.605 25.569 138.027C25.5293 138.099 25.467 138.154 25.392 138.186C25.317 138.218 25.2334 138.224 25.1546 138.204C25.0757 138.183 25.0058 138.137 24.9561 138.073C24.9064 138.008 24.8795 137.929 24.8797 137.847ZM25.5297 179.423C25.5297 179.325 25.5685 179.232 25.6375 179.163C25.7065 179.094 25.8001 179.055 25.8977 179.055C25.9953 179.055 26.0888 179.094 26.1578 179.163C26.2268 179.232 26.2656 179.325 26.2656 179.423C26.2656 179.912 26.2766 180.412 26.2987 180.909C26.3028 181.007 26.2679 181.102 26.2018 181.174C26.1357 181.245 26.0437 181.288 25.9461 181.292C25.8485 181.296 25.7533 181.261 25.6815 181.195C25.6096 181.129 25.5669 181.037 25.5629 180.94C25.542 180.434 25.5297 179.924 25.5297 179.424V179.423ZM25.7309 175.675C25.7297 175.662 25.7297 175.649 25.7309 175.635C25.764 175.336 25.802 175.035 25.8437 174.737C25.8719 174.534 25.9026 174.331 25.9357 174.125C25.952 174.029 26.0058 173.943 26.0854 173.887C26.165 173.83 26.2638 173.808 26.36 173.824C26.4563 173.84 26.5422 173.894 26.5988 173.973C26.6554 174.053 26.678 174.152 26.6617 174.248C26.6299 174.445 26.6004 174.642 26.5722 174.84C26.5317 175.131 26.4937 175.426 26.4618 175.717C26.4565 175.815 26.4126 175.906 26.3398 175.971C26.267 176.036 26.1712 176.07 26.0737 176.064C25.9761 176.059 25.8846 176.015 25.8194 175.942C25.7542 175.87 25.7206 175.774 25.726 175.677L25.7309 175.675ZM25.7971 161.194C25.7972 161.115 25.8223 161.039 25.8689 160.976C25.9154 160.913 25.9809 160.867 26.0558 160.843C26.1308 160.82 26.2112 160.821 26.2853 160.847C26.3594 160.872 26.4234 160.921 26.468 160.986C26.7439 161.39 27.037 161.794 27.3387 162.187C27.3681 162.225 27.3897 162.269 27.4021 162.316C27.4146 162.362 27.4177 162.411 27.4113 162.459C27.405 162.507 27.3892 162.553 27.365 162.595C27.3407 162.636 27.3085 162.673 27.2701 162.702C27.2316 162.732 27.1878 162.753 27.1411 162.766C27.0943 162.778 27.0456 162.781 26.9977 162.775C26.9497 162.769 26.9035 162.753 26.8616 162.729C26.8198 162.704 26.7831 162.672 26.7537 162.634C26.4447 162.23 26.1405 161.815 25.8609 161.401C25.819 161.339 25.7968 161.267 25.7971 161.193V161.194ZM25.9026 184.66C25.8994 184.612 25.9057 184.563 25.9212 184.518C25.9367 184.472 25.9611 184.43 25.993 184.393C26.0249 184.357 26.0636 184.327 26.107 184.306C26.1505 184.284 26.1977 184.271 26.246 184.268C26.2943 184.265 26.3428 184.271 26.3886 184.287C26.4345 184.302 26.4769 184.327 26.5133 184.359C26.5498 184.39 26.5796 184.429 26.601 184.472C26.6225 184.516 26.6352 184.563 26.6384 184.611C26.7047 185.094 26.7807 185.591 26.8653 186.081C26.8816 186.177 26.8589 186.275 26.8024 186.355C26.7458 186.434 26.6599 186.488 26.5636 186.504C26.4674 186.521 26.3686 186.498 26.289 186.441C26.2094 186.385 26.1555 186.299 26.1393 186.203C26.0547 185.702 25.9762 185.199 25.9099 184.708L25.9026 184.66ZM25.9504 68.6936C25.9504 68.6314 25.9662 68.5701 25.9964 68.5156C26.0266 68.4611 26.0702 68.4152 26.123 68.3822C26.1759 68.3491 26.2363 68.33 26.2985 68.3266C26.3608 68.3233 26.4229 68.3358 26.479 68.363C26.934 68.5822 27.389 68.81 27.8281 69.039C27.9148 69.0838 27.9801 69.1611 28.0096 69.254C28.0392 69.3469 28.0306 69.4477 27.9857 69.5343C27.9408 69.6208 27.8633 69.686 27.7703 69.7156C27.6772 69.7451 27.5763 69.7365 27.4896 69.6916C27.0518 69.4651 26.6029 69.241 26.154 69.0255C26.0923 68.9948 26.0406 68.9474 26.0046 68.8887C25.9686 68.83 25.9498 68.7624 25.9504 68.6936ZM26.7684 170.529C26.7683 170.493 26.7737 170.458 26.7844 170.425C26.9267 169.942 27.0849 169.455 27.2517 168.978C27.2842 168.886 27.352 168.811 27.4402 168.769C27.5284 168.727 27.6298 168.721 27.722 168.754C27.8142 168.786 27.8897 168.854 27.9319 168.942C27.9741 169.03 27.9796 169.131 27.9471 169.223C27.7827 169.69 27.6294 170.164 27.4896 170.635C27.4648 170.72 27.41 170.793 27.3355 170.841C27.2609 170.889 27.1715 170.909 27.0837 170.896C26.996 170.883 26.9157 170.839 26.8578 170.772C26.7999 170.705 26.7682 170.62 26.7684 170.531V170.529ZM26.8911 189.818C26.8917 189.729 26.9249 189.642 26.9846 189.576C27.0442 189.509 27.1262 189.466 27.2151 189.456C27.3041 189.445 27.3939 189.467 27.4676 189.518C27.5414 189.568 27.5941 189.644 27.6159 189.731C27.7324 190.203 27.8612 190.689 27.9838 191.176C27.9975 191.223 28.0016 191.272 27.996 191.32C27.9904 191.369 27.9752 191.416 27.9513 191.458C27.9273 191.501 27.8951 191.538 27.8566 191.568C27.8181 191.598 27.7739 191.62 27.7268 191.633C27.6796 191.646 27.6304 191.649 27.582 191.643C27.5335 191.636 27.4869 191.62 27.4447 191.595C27.4025 191.571 27.3657 191.538 27.3363 191.499C27.307 191.46 27.2857 191.416 27.2737 191.368C27.1388 190.879 27.0125 190.389 26.896 189.905C26.8929 189.876 26.8933 189.847 26.8972 189.818H26.8911ZM27.7852 133.465C27.7844 133.384 27.8108 133.306 27.86 133.243C28.158 132.85 28.4732 132.448 28.7945 132.052C28.8249 132.014 28.8624 131.983 28.9048 131.96C28.9472 131.937 28.9938 131.922 29.0419 131.917C29.0899 131.912 29.1385 131.916 29.1849 131.93C29.2313 131.943 29.2745 131.966 29.3121 131.996C29.3497 132.027 29.3809 132.064 29.4041 132.107C29.4272 132.149 29.4417 132.195 29.4469 132.243C29.452 132.291 29.4476 132.34 29.4339 132.386C29.4203 132.432 29.3976 132.476 29.3673 132.513C29.0496 132.905 28.7393 133.299 28.4462 133.686C28.3997 133.748 28.335 133.793 28.2614 133.815C28.1878 133.838 28.109 133.837 28.036 133.813C27.963 133.788 27.8995 133.741 27.8545 133.679C27.8095 133.616 27.7852 133.542 27.7852 133.465ZM28.353 194.868C28.3532 194.781 28.3845 194.696 28.4414 194.63C28.4982 194.564 28.5768 194.52 28.6632 194.506C28.7495 194.492 28.8379 194.51 28.9126 194.555C28.9872 194.601 29.0432 194.671 29.0705 194.754C29.2213 195.213 29.3832 195.691 29.5488 196.171C29.5813 196.263 29.5759 196.364 29.5337 196.452C29.4915 196.54 29.4159 196.608 29.3237 196.641C29.2315 196.673 29.1302 196.668 29.042 196.626C28.9538 196.583 28.8859 196.508 28.8534 196.416C28.6866 195.926 28.5235 195.451 28.3714 194.987C28.3588 194.949 28.3526 194.908 28.353 194.868ZM28.6903 165.641C28.6902 165.585 28.7033 165.529 28.7283 165.479C28.9527 165.027 29.1907 164.574 29.4372 164.132C29.4601 164.088 29.4914 164.05 29.5294 164.019C29.5673 163.988 29.611 163.965 29.6579 163.951C29.7049 163.937 29.7542 163.933 29.8028 163.938C29.8515 163.944 29.8986 163.959 29.9414 163.983C29.9842 164.006 30.0217 164.039 30.0519 164.077C30.0821 164.115 30.1043 164.16 30.1172 164.207C30.1301 164.254 30.1335 164.303 30.127 164.352C30.1206 164.4 30.1046 164.447 30.0798 164.489C29.9854 164.658 29.8922 164.829 29.8002 165.001C30.1399 165.344 30.4907 165.682 30.8451 166.006C30.8873 166.036 30.9226 166.075 30.9487 166.12C30.9748 166.165 30.9911 166.214 30.9966 166.266C31.0022 166.317 30.9967 166.369 30.9807 166.419C30.9647 166.468 30.9384 166.513 30.9036 166.551C30.8688 166.59 30.8263 166.62 30.7789 166.641C30.7314 166.662 30.6801 166.673 30.6282 166.672C30.5764 166.672 30.5252 166.661 30.478 166.639C30.4309 166.618 30.3888 166.586 30.3546 166.548C30.0492 166.268 29.7413 165.979 29.4519 165.69L29.3943 165.805C29.3575 165.88 29.2966 165.94 29.2215 165.975C29.1464 166.01 29.0615 166.019 28.9806 166.001C28.8997 165.982 28.8276 165.936 28.776 165.871C28.7244 165.806 28.6964 165.726 28.6964 165.643L28.6903 165.641ZM30.1289 199.815C30.1288 199.73 30.1588 199.646 30.2137 199.58C30.2686 199.514 30.345 199.47 30.4295 199.454C30.514 199.438 30.6013 199.452 30.6764 199.494C30.7514 199.536 30.8094 199.603 30.8402 199.683C31.0201 200.149 31.2028 200.614 31.3884 201.078C31.4244 201.169 31.4228 201.27 31.3841 201.359C31.3453 201.449 31.2725 201.519 31.1818 201.555C31.091 201.591 30.9897 201.589 30.9001 201.551C30.8106 201.512 30.74 201.439 30.7041 201.349C30.5193 200.883 30.3362 200.416 30.1546 199.948C30.138 199.906 30.1292 199.861 30.1289 199.815ZM30.5643 71.215C30.5639 71.1466 30.583 71.0795 30.6195 71.0215C30.6446 70.9802 30.6777 70.9443 30.7168 70.9158C30.7559 70.8872 30.8002 70.8667 30.8473 70.8553C30.8943 70.8439 30.9432 70.842 30.991 70.8495C31.0388 70.857 31.0847 70.8738 31.126 70.8991C31.5565 71.166 31.9845 71.4403 32.4003 71.7171C32.4816 71.771 32.5381 71.855 32.5574 71.9505C32.5768 72.046 32.5573 72.1453 32.5033 72.2265C32.4493 72.3077 32.3652 72.3641 32.2695 72.3834C32.1738 72.4027 32.0744 72.3833 31.9931 72.3294C31.5847 72.0587 31.1628 71.7869 30.7384 71.5248C30.6855 71.4921 30.6418 71.4465 30.6114 71.3923C30.5809 71.3382 30.5647 71.2771 30.5643 71.215ZM31.1775 129.443C31.178 129.353 31.2121 129.265 31.2732 129.198C31.5957 128.846 31.9318 128.484 32.2985 128.096C32.3653 128.025 32.4577 127.983 32.5553 127.98C32.653 127.977 32.7479 128.013 32.8191 128.08C32.8903 128.146 32.9321 128.239 32.9352 128.336C32.9383 128.434 32.9025 128.528 32.8356 128.599C32.4677 128.988 32.1366 129.346 31.8165 129.702C31.7666 129.756 31.7015 129.794 31.6296 129.811C31.5577 129.828 31.4825 129.823 31.4136 129.796C31.3446 129.77 31.2853 129.723 31.2432 129.663C31.2011 129.602 31.1782 129.53 31.1775 129.457V129.443ZM31.4228 161.152C31.4231 161.075 31.448 160.999 31.4939 160.937C31.7919 160.528 32.1071 160.122 32.4211 159.73C32.4518 159.693 32.4895 159.662 32.5322 159.639C32.5749 159.616 32.6217 159.602 32.6698 159.597C32.718 159.593 32.7666 159.597 32.813 159.611C32.8593 159.625 32.9025 159.648 32.9399 159.679C32.9773 159.71 33.0084 159.747 33.0312 159.79C33.0541 159.833 33.0683 159.879 33.0731 159.927C33.0779 159.975 33.0731 160.024 33.0591 160.07C33.0451 160.117 33.0221 160.16 32.9914 160.197C32.6811 160.58 32.3782 160.976 32.0863 161.374C32.0406 161.437 31.9761 161.484 31.9021 161.508C31.828 161.532 31.7483 161.532 31.6742 161.508C31.6002 161.484 31.5357 161.437 31.4901 161.374C31.4445 161.311 31.4201 161.235 31.4203 161.157L31.4228 161.152ZM32.1096 204.688C32.1094 204.603 32.1387 204.52 32.1926 204.455C32.2464 204.389 32.3215 204.344 32.405 204.327C32.4885 204.31 32.5752 204.323 32.6504 204.363C32.7256 204.403 32.7845 204.467 32.8173 204.546C33.0102 205.006 33.2048 205.466 33.401 205.926C33.42 205.97 33.4301 206.018 33.4307 206.066C33.4312 206.115 33.4222 206.162 33.4042 206.207C33.3862 206.252 33.3596 206.293 33.3258 206.327C33.292 206.362 33.2517 206.389 33.2073 206.408C33.1628 206.427 33.115 206.437 33.0667 206.438C33.0184 206.439 32.9704 206.43 32.9255 206.412C32.8806 206.394 32.8398 206.367 32.8052 206.333C32.7706 206.3 32.743 206.259 32.724 206.215L32.1329 204.83C32.1138 204.785 32.1034 204.737 32.1022 204.688H32.1096ZM33.141 168.646C33.141 168.579 33.1597 168.512 33.1952 168.455C33.2306 168.397 33.2813 168.35 33.3417 168.319C33.4021 168.288 33.4698 168.275 33.5374 168.28C33.605 168.285 33.6699 168.309 33.7248 168.349C34.1222 168.635 34.5343 168.92 34.9513 169.191C35.0253 169.248 35.0751 169.33 35.0907 169.422C35.1064 169.514 35.0866 169.608 35.0354 169.685C34.9842 169.763 34.9054 169.818 34.8149 169.84C34.7244 169.862 34.6289 169.849 34.5478 169.804C34.1234 169.526 33.7027 169.235 33.2956 168.947C33.2477 168.912 33.2086 168.867 33.1818 168.815C33.1549 168.763 33.1409 168.705 33.141 168.646ZM34.1884 209.51C34.1885 209.426 34.2174 209.345 34.2705 209.279C34.3235 209.214 34.3974 209.169 34.4799 209.151C34.5623 209.134 34.6482 209.145 34.7233 209.183C34.7984 209.221 34.8581 209.284 34.8924 209.361C35.096 209.818 35.3004 210.274 35.5056 210.729C35.5255 210.773 35.5365 210.82 35.538 210.868C35.5396 210.917 35.5315 210.965 35.5145 211.01C35.4974 211.055 35.4716 211.096 35.4385 211.132C35.4054 211.167 35.3657 211.195 35.3216 211.215C35.2776 211.235 35.2301 211.246 35.1818 211.247C35.1334 211.249 35.0853 211.241 35.0401 211.224C34.9949 211.207 34.9535 211.181 34.9182 211.148C34.883 211.115 34.8546 211.075 34.8347 211.031C34.6287 210.574 34.4243 210.117 34.2215 209.66C34.2002 209.614 34.1889 209.563 34.1884 209.513V209.51ZM34.7943 125.627C34.7943 125.532 34.8313 125.441 34.8973 125.373L35.9398 124.291C35.9728 124.255 36.0128 124.226 36.0574 124.205C36.102 124.184 36.1503 124.173 36.1995 124.171C36.2486 124.169 36.2976 124.177 36.3436 124.195C36.3896 124.212 36.4315 124.239 36.4671 124.273C36.5026 124.307 36.5309 124.348 36.5504 124.393C36.5698 124.438 36.58 124.486 36.5804 124.535C36.5807 124.585 36.5712 124.633 36.5524 124.679C36.5336 124.724 36.5058 124.765 36.4708 124.8L35.4271 125.882C35.3762 125.935 35.3107 125.971 35.239 125.986C35.1673 126.002 35.0927 125.995 35.0246 125.968C34.9566 125.941 34.8984 125.894 34.8573 125.833C34.8163 125.772 34.7943 125.701 34.7943 125.627ZM34.8617 74.2372C34.8617 74.1535 34.8902 74.0723 34.9427 74.007C34.9729 73.9694 35.0103 73.938 35.0527 73.9148C35.0951 73.8916 35.1417 73.877 35.1898 73.8717C35.2378 73.8665 35.2865 73.8708 35.3329 73.8843C35.3793 73.8979 35.4226 73.9204 35.4602 73.9507C35.8539 74.2666 36.2464 74.5936 36.6254 74.9218C36.699 74.9858 36.7442 75.0763 36.751 75.1736C36.7578 75.2708 36.7256 75.3668 36.6615 75.4404C36.5975 75.5139 36.5067 75.5591 36.4093 75.5658C36.3119 75.5726 36.2158 75.5405 36.1421 75.4765C35.7742 75.1544 35.3854 74.8336 34.9991 74.5238C34.9565 74.4896 34.9221 74.4464 34.8983 74.3972C34.8745 74.3481 34.8621 74.2943 34.8617 74.2397V74.2372ZM34.8715 157.193C34.8716 157.144 34.8816 157.095 34.901 157.049C34.9204 157.004 34.9487 156.963 34.9844 156.929C35.3523 156.577 35.7288 156.233 36.109 155.904C36.1452 155.87 36.1878 155.844 36.2341 155.828C36.2805 155.811 36.3298 155.804 36.3789 155.807C36.4281 155.809 36.4763 155.822 36.5205 155.844C36.5648 155.865 36.6042 155.896 36.6365 155.933C36.6688 155.97 36.6933 156.013 36.7085 156.06C36.7237 156.107 36.7294 156.156 36.7251 156.205C36.7209 156.254 36.7068 156.302 36.6838 156.345C36.6608 156.389 36.6292 156.427 36.591 156.458C36.2231 156.78 35.8551 157.116 35.4946 157.459C35.4425 157.509 35.3768 157.542 35.3058 157.555C35.2347 157.568 35.1614 157.56 35.0949 157.532C35.0285 157.504 34.9719 157.456 34.9322 157.396C34.8924 157.336 34.8713 157.265 34.8715 157.193ZM36.3788 214.289C36.3784 214.205 36.4067 214.123 36.459 214.058C36.5113 213.992 36.5845 213.947 36.6664 213.928C36.7483 213.91 36.834 213.92 36.9093 213.957C36.9846 213.994 37.045 214.056 37.0804 214.132C37.2938 214.584 37.5084 215.036 37.7242 215.486C37.7466 215.53 37.7599 215.578 37.7635 215.626C37.7671 215.675 37.7609 215.724 37.7451 215.771C37.7294 215.817 37.7045 215.86 37.6719 215.897C37.6394 215.934 37.5998 215.963 37.5555 215.985C37.5112 216.006 37.4631 216.018 37.414 216.02C37.3649 216.023 37.3159 216.015 37.2698 215.998C37.2237 215.981 37.1814 215.955 37.1455 215.922C37.1096 215.888 37.0808 215.848 37.0607 215.803C36.8441 215.352 36.6286 214.899 36.4144 214.445C36.3918 214.397 36.3797 214.344 36.3788 214.291V214.289ZM37.6298 171.378C37.6299 171.316 37.6461 171.254 37.6769 171.199C37.7076 171.144 37.752 171.098 37.8056 171.066C37.8592 171.033 37.9204 171.014 37.9832 171.012C38.046 171.009 38.1085 171.023 38.1645 171.052C38.6048 171.274 39.0562 171.491 39.5063 171.694C39.5952 171.735 39.6645 171.809 39.6989 171.9C39.7333 171.991 39.7299 172.092 39.6896 172.181C39.6493 172.27 39.5753 172.339 39.4838 172.374C39.3924 172.408 39.2911 172.405 39.2021 172.364C38.7422 172.156 38.281 171.934 37.8322 171.707C37.7717 171.676 37.7208 171.63 37.6851 171.572C37.6494 171.515 37.6302 171.449 37.6298 171.381V171.378ZM38.4074 121.807C38.4076 121.716 38.4412 121.629 38.5018 121.562C38.8477 121.181 39.1813 120.805 39.4952 120.444C39.5593 120.37 39.65 120.325 39.7474 120.318C39.8448 120.312 39.9409 120.344 40.0146 120.408C40.0883 120.472 40.1335 120.562 40.1403 120.66C40.1471 120.757 40.1149 120.853 40.0508 120.926C39.7332 121.294 39.3959 121.67 39.0476 122.055C38.9977 122.11 38.9325 122.149 38.8605 122.166C38.7884 122.183 38.7128 122.178 38.6437 122.151C38.5745 122.125 38.5149 122.078 38.4728 122.017C38.4306 121.957 38.4078 121.884 38.4074 121.81V121.807ZM38.6735 219.021C38.6734 218.939 38.7012 218.859 38.7522 218.794C38.8033 218.729 38.8747 218.684 38.955 218.664C39.0353 218.645 39.1198 218.653 39.1949 218.687C39.2699 218.722 39.3312 218.78 39.3689 218.854C39.5921 219.301 39.8165 219.748 40.0422 220.193C40.0863 220.28 40.0939 220.381 40.0634 220.474C40.033 220.567 39.9669 220.644 39.8797 220.688C39.7925 220.732 39.6914 220.739 39.5986 220.709C39.5058 220.678 39.4289 220.612 39.3848 220.525C39.1592 220.077 38.9335 219.63 38.7103 219.178C38.6863 219.129 38.6737 219.076 38.6735 219.021ZM38.7275 77.7971C38.7289 77.7242 38.7521 77.6533 38.794 77.5936C38.8359 77.5339 38.8947 77.488 38.9628 77.4617C39.0309 77.4355 39.1053 77.43 39.1766 77.4461C39.2478 77.4622 39.3126 77.4991 39.3628 77.5521C39.7098 77.9195 40.052 78.2991 40.3795 78.6775C40.4111 78.714 40.4353 78.7564 40.4505 78.8022C40.4658 78.848 40.4718 78.8964 40.4683 78.9446C40.4649 78.9927 40.4519 79.0397 40.4303 79.0829C40.4086 79.126 40.3786 79.1645 40.3421 79.1961C40.3055 79.2277 40.2631 79.2518 40.2172 79.267C40.1713 79.2823 40.1229 79.2883 40.0746 79.2849C40.0264 79.2814 39.9793 79.2685 39.9361 79.2468C39.8929 79.2252 39.8543 79.1953 39.8227 79.1588C39.5026 78.7914 39.1678 78.4167 38.8268 78.0567C38.7609 77.9865 38.7253 77.8932 38.7275 77.7971ZM38.9801 153.922C38.9802 153.861 38.9954 153.801 39.0246 153.748C39.0537 153.694 39.0957 153.648 39.1469 153.615C39.5725 153.337 40.0054 153.069 40.4457 152.818C40.5303 152.769 40.6308 152.756 40.7251 152.781C40.8194 152.806 40.8998 152.868 40.9486 152.952C40.9973 153.037 41.0105 153.137 40.9852 153.231C40.9599 153.326 40.8982 153.406 40.8136 153.454C40.3893 153.699 39.9649 153.959 39.5504 154.23C39.4949 154.266 39.4307 154.286 39.3644 154.289C39.2982 154.292 39.2325 154.277 39.1742 154.245C39.1159 154.214 39.0672 154.167 39.0333 154.11C38.9993 154.053 38.9814 153.988 38.9813 153.922H38.9801ZM41.0651 223.699C41.065 223.617 41.0926 223.537 41.1434 223.472C41.1942 223.408 41.2652 223.362 41.3452 223.342C41.4252 223.323 41.5095 223.33 41.5846 223.364C41.6596 223.398 41.7211 223.456 41.7592 223.529C41.9923 223.971 42.2265 224.412 42.462 224.854C42.4847 224.897 42.4988 224.943 42.5034 224.991C42.5081 225.039 42.5032 225.088 42.4891 225.134C42.4749 225.18 42.4519 225.223 42.4211 225.261C42.3904 225.298 42.3526 225.329 42.3099 225.351C42.2672 225.374 42.2205 225.388 42.1724 225.393C42.1242 225.397 42.0757 225.392 42.0294 225.378C41.9832 225.364 41.9402 225.341 41.9029 225.31C41.8656 225.28 41.8347 225.242 41.812 225.199C41.5765 224.758 41.3418 224.314 41.108 223.87C41.0813 223.817 41.0683 223.758 41.07 223.699H41.0651ZM41.769 117.774C41.769 117.695 41.7949 117.617 41.8426 117.554C42.1456 117.151 42.4399 116.744 42.7159 116.348C42.7736 116.273 42.8578 116.224 42.951 116.21C43.0441 116.195 43.1392 116.217 43.2167 116.271C43.2941 116.325 43.3479 116.406 43.367 116.498C43.386 116.591 43.369 116.686 43.3193 116.766C43.0384 117.172 42.7404 117.584 42.4313 117.991C42.385 118.053 42.3204 118.098 42.2467 118.121C42.173 118.144 42.0939 118.144 42.0206 118.119C41.9474 118.095 41.8836 118.048 41.8385 117.985C41.7933 117.923 41.769 117.848 41.769 117.771V117.774ZM42.0229 81.8859C42.023 81.8076 42.0481 81.7313 42.0947 81.6682C42.1412 81.6052 42.2067 81.5586 42.2816 81.5354C42.3566 81.5121 42.437 81.5134 42.5111 81.539C42.5852 81.5646 42.6493 81.6132 42.6938 81.6777C42.9808 82.0953 43.2592 82.5227 43.5241 82.9488C43.5742 83.0316 43.5896 83.1308 43.5669 83.2248C43.5442 83.3189 43.4853 83.4002 43.403 83.4511C43.3206 83.5021 43.2215 83.5185 43.127 83.4969C43.0326 83.4753 42.9505 83.4174 42.8986 83.3358C42.6398 82.9194 42.3675 82.5006 42.0867 82.0928C42.0461 82.0302 42.0256 81.9568 42.0278 81.8822L42.0229 81.8859ZM42.4828 173.398C42.4823 173.359 42.4886 173.32 42.5012 173.283C42.5318 173.19 42.5977 173.114 42.6846 173.07C42.7715 173.026 42.8723 173.019 42.9648 173.049C43.4333 173.202 43.9129 173.349 44.3887 173.482C44.4793 173.512 44.555 173.575 44.5999 173.659C44.6449 173.742 44.6555 173.84 44.6296 173.932C44.6037 174.023 44.5433 174.101 44.4611 174.149C44.3789 174.197 44.2813 174.211 44.1888 174.189C43.6982 174.053 43.2077 173.904 42.7355 173.747C42.6623 173.722 42.5989 173.674 42.5544 173.611C42.5099 173.547 42.4866 173.471 42.4877 173.394L42.4828 173.398ZM43.5633 228.329C43.5629 228.248 43.5897 228.168 43.6396 228.103C43.6895 228.039 43.7597 227.992 43.8389 227.972C43.9181 227.951 44.0019 227.958 44.0771 227.99C44.1522 228.023 44.2144 228.079 44.2538 228.151C44.4991 228.587 44.7444 229.024 44.9897 229.46C45.0139 229.502 45.0296 229.548 45.0357 229.596C45.0419 229.645 45.0384 229.693 45.0255 229.74C45.0126 229.787 44.9906 229.831 44.9606 229.869C44.9307 229.907 44.8934 229.939 44.851 229.963C44.8086 229.987 44.762 230.002 44.7137 230.008C44.6654 230.013 44.6164 230.009 44.5697 229.996C44.5229 229.983 44.4793 229.96 44.4413 229.93C44.4033 229.9 44.3716 229.862 44.3482 229.82C44.103 229.382 43.8577 228.945 43.6124 228.507C43.582 228.452 43.5667 228.389 43.5682 228.326L43.5633 228.329ZM43.6406 151.503C43.6408 151.429 43.6629 151.358 43.7042 151.297C43.7456 151.236 43.8041 151.189 43.8724 151.162C44.3421 150.974 44.8241 150.795 45.3024 150.637C45.3488 150.619 45.3985 150.61 45.4483 150.612C45.4981 150.613 45.5471 150.625 45.5923 150.646C45.6375 150.667 45.678 150.697 45.7112 150.734C45.7444 150.771 45.7698 150.814 45.7857 150.862C45.8016 150.909 45.8077 150.959 45.8037 151.008C45.7996 151.058 45.7856 151.106 45.7623 151.15C45.739 151.194 45.707 151.233 45.6682 151.264C45.6294 151.296 45.5847 151.319 45.5367 151.332C45.0718 151.489 44.6033 151.661 44.1459 151.844C44.0553 151.88 43.954 151.879 43.8643 151.841C43.7746 151.802 43.7038 151.73 43.6676 151.64C43.6497 151.596 43.6405 151.55 43.6406 151.503ZM44.5788 113.333C44.5788 113.276 44.5918 113.221 44.6168 113.17C44.8339 112.734 45.0412 112.282 45.2301 111.823C45.2683 111.733 45.3407 111.662 45.4313 111.626C45.5219 111.589 45.6233 111.59 45.7133 111.628C45.8032 111.666 45.8743 111.739 45.9109 111.829C45.9474 111.92 45.9465 112.021 45.9083 112.111C45.7084 112.581 45.4937 113.046 45.2718 113.494C45.235 113.569 45.1741 113.629 45.099 113.664C45.0239 113.699 44.939 113.708 44.8581 113.69C44.7772 113.671 44.7051 113.625 44.6535 113.56C44.6019 113.495 44.5739 113.414 44.5739 113.332L44.5788 113.333ZM44.6352 86.4388C44.6351 86.3551 44.6636 86.2739 44.716 86.2086C44.7684 86.1433 44.8416 86.0978 44.9234 86.0796C45.0052 86.0615 45.0908 86.0718 45.166 86.1088C45.2411 86.1459 45.3014 86.2074 45.3368 86.2833C45.5502 86.7401 45.755 87.2079 45.95 87.6744C45.9829 87.7637 45.9799 87.8624 45.9415 87.9495C45.9031 88.0366 45.8323 88.1054 45.744 88.1415C45.6558 88.1775 45.557 88.1779 45.4684 88.1427C45.3799 88.1074 45.3085 88.0392 45.2693 87.9524C45.0829 87.4969 44.8817 87.0401 44.6733 86.5931C44.6495 86.5451 44.6365 86.4924 44.6352 86.4388ZM46.1671 232.897C46.1664 232.816 46.1927 232.737 46.2418 232.672C46.291 232.607 46.3601 232.561 46.4386 232.54C46.517 232.518 46.6003 232.524 46.6755 232.555C46.7506 232.586 46.8133 232.641 46.8539 232.711C47.1057 233.144 47.3587 233.575 47.613 234.004C47.6424 234.046 47.6627 234.093 47.6727 234.143C47.6828 234.193 47.6823 234.244 47.6714 234.294C47.6604 234.344 47.6393 234.391 47.6092 234.432C47.5791 234.473 47.5408 234.508 47.4967 234.533C47.4526 234.559 47.4036 234.575 47.3529 234.58C47.3022 234.586 47.2509 234.581 47.2022 234.566C47.1535 234.551 47.1085 234.526 47.0701 234.492C47.0317 234.459 47.0006 234.418 46.979 234.371C46.7239 233.94 46.47 233.508 46.2173 233.075C46.1855 233.02 46.1682 232.959 46.1671 232.896V232.897ZM46.4418 108.426C46.442 108.392 46.4466 108.359 46.4553 108.327C46.5865 107.854 46.7091 107.37 46.8232 106.888C46.8471 106.795 46.9062 106.716 46.9878 106.666C47.0694 106.617 47.1671 106.601 47.2604 106.622C47.3536 106.643 47.435 106.699 47.4873 106.779C47.5397 106.859 47.5588 106.956 47.5407 107.05C47.4291 107.539 47.304 108.04 47.1727 108.519C47.1489 108.605 47.0948 108.679 47.0206 108.727C46.9463 108.776 46.8569 108.796 46.7688 108.784C46.6807 108.773 46.5999 108.729 46.5414 108.662C46.4828 108.596 46.4505 108.51 46.4504 108.421L46.4418 108.426ZM46.4516 91.3628C46.4517 91.274 46.4841 91.1883 46.5426 91.1215C46.6011 91.0547 46.6819 91.0113 46.77 90.9994C46.8581 90.9874 46.9475 91.0077 47.0218 91.0565C47.0961 91.1053 47.1501 91.1793 47.174 91.2648C47.3076 91.7547 47.4327 92.2445 47.5419 92.7343C47.5542 92.782 47.5569 92.8316 47.5496 92.8803C47.5424 92.929 47.5254 92.9757 47.4998 93.0177C47.4741 93.0597 47.4402 93.0961 47.4002 93.1248C47.3602 93.1535 47.3147 93.1739 47.2667 93.1847C47.2186 93.1955 47.1688 93.1966 47.1203 93.1879C47.0718 93.1791 47.0256 93.1607 46.9843 93.1338C46.9431 93.1069 46.9077 93.072 46.8802 93.0311C46.8527 92.9902 46.8338 92.9443 46.8244 92.896C46.7153 92.4147 46.5939 91.931 46.4639 91.4571C46.4554 91.4264 46.4513 91.3947 46.4516 91.3628ZM47.4193 103.267V103.229C47.4708 102.739 47.5125 102.241 47.5419 101.748C47.5447 101.7 47.557 101.653 47.5781 101.609C47.5992 101.566 47.6287 101.527 47.6648 101.495C47.7379 101.43 47.8337 101.397 47.9313 101.402C48.0289 101.408 48.1202 101.452 48.1852 101.525C48.2501 101.598 48.2835 101.694 48.2778 101.791C48.2483 102.295 48.2066 102.804 48.1551 103.305C48.1501 103.402 48.1065 103.494 48.0339 103.559C47.9613 103.624 47.8658 103.658 47.7682 103.653C47.6706 103.648 47.579 103.605 47.5136 103.532C47.4481 103.46 47.4142 103.364 47.4193 103.267ZM47.4193 96.5207C47.4168 96.4724 47.424 96.4242 47.4402 96.3787C47.4565 96.3332 47.4815 96.2914 47.514 96.2555C47.5796 96.1832 47.6712 96.1398 47.7688 96.135C47.8171 96.1325 47.8654 96.1397 47.911 96.1559C47.9566 96.1721 47.9985 96.1972 48.0343 96.2296C48.1068 96.295 48.1502 96.3865 48.1551 96.484C48.2066 96.9848 48.2483 97.4942 48.2778 97.9975C48.2833 98.095 48.2498 98.1906 48.1847 98.2634C48.1196 98.3362 48.0283 98.3802 47.9307 98.3857C47.8331 98.3912 47.7373 98.3578 47.6644 98.2928C47.5915 98.2278 47.5474 98.1366 47.5419 98.0392C47.5137 97.5493 47.4744 97.0497 47.4193 96.5599V96.5207ZM47.586 174.655C47.5842 174.635 47.5842 174.615 47.586 174.594C47.5941 174.547 47.6114 174.501 47.6371 174.46C47.6628 174.419 47.6963 174.384 47.7357 174.356C47.7751 174.328 47.8196 174.308 47.8668 174.297C47.9139 174.286 47.9627 174.285 48.0104 174.293C48.501 174.375 48.9915 174.448 49.4821 174.51C49.5797 174.522 49.6685 174.572 49.729 174.649C49.759 174.688 49.7811 174.732 49.794 174.778C49.807 174.825 49.8106 174.874 49.8047 174.922C49.7987 174.971 49.7833 175.017 49.7593 175.06C49.7353 175.102 49.7032 175.139 49.6648 175.169C49.6264 175.199 49.5825 175.221 49.5356 175.234C49.4887 175.247 49.4397 175.25 49.3914 175.244C48.8898 175.182 48.3845 175.107 47.8878 175.024C47.8018 175.008 47.7243 174.963 47.669 174.895C47.6137 174.828 47.5843 174.743 47.586 174.655ZM48.6898 150.033C48.6901 149.948 48.7203 149.865 48.7751 149.799C48.83 149.733 48.9061 149.689 48.9903 149.673C49.487 149.579 49.9923 149.497 50.4939 149.428C50.5915 149.415 50.6903 149.441 50.7685 149.501C50.8467 149.561 50.8979 149.649 50.9109 149.747C50.9239 149.844 50.8977 149.943 50.8379 150.021C50.778 150.099 50.6896 150.15 50.5921 150.163C50.1015 150.229 49.6109 150.309 49.1203 150.399C49.0247 150.417 48.9259 150.397 48.8454 150.342C48.765 150.287 48.7095 150.203 48.6911 150.108C48.6879 150.083 48.6875 150.058 48.6898 150.033ZM48.8701 237.411C48.87 237.331 48.8961 237.253 48.9444 237.189C48.9928 237.125 49.0608 237.078 49.1381 237.057C49.2153 237.035 49.2976 237.039 49.3723 237.068C49.4471 237.097 49.5102 237.15 49.552 237.219C49.8129 237.645 50.0753 238.07 50.3394 238.495C50.3649 238.536 50.3821 238.581 50.39 238.629C50.3979 238.676 50.3962 238.725 50.3853 238.772C50.3743 238.819 50.3541 238.864 50.3259 238.903C50.2978 238.942 50.2621 238.975 50.2211 239.001C50.18 239.026 50.1343 239.044 50.0866 239.051C50.0389 239.059 49.9901 239.058 49.943 239.047C49.8959 239.036 49.8514 239.016 49.8121 238.987C49.7728 238.959 49.7394 238.924 49.7139 238.883C49.449 238.457 49.1857 238.03 48.9241 237.603C48.8867 237.545 48.8667 237.477 48.8665 237.407L48.8701 237.411ZM51.6664 241.863C51.6659 241.784 51.6914 241.706 51.739 241.642C51.7866 241.578 51.8538 241.531 51.9303 241.509C52.0069 241.486 52.0887 241.489 52.1634 241.517C52.2381 241.545 52.3018 241.597 52.3446 241.664C52.6145 242.084 52.8863 242.504 53.1602 242.923C53.1921 242.963 53.2152 243.009 53.2282 243.058C53.2411 243.108 53.2436 243.159 53.2354 243.21C53.2273 243.26 53.2087 243.308 53.1808 243.351C53.1529 243.394 53.1164 243.431 53.0736 243.459C53.0308 243.487 52.9825 243.505 52.932 243.514C52.8815 243.522 52.8299 243.52 52.7803 243.507C52.7307 243.494 52.6844 243.471 52.6442 243.44C52.604 243.408 52.5709 243.368 52.547 243.323C52.2739 242.903 52.0012 242.483 51.729 242.061C51.6877 242.001 51.6646 241.932 51.6627 241.86L51.6664 241.863ZM52.8279 175.137C52.8278 175.088 52.8376 175.04 52.8564 174.995C52.8753 174.95 52.903 174.909 52.9378 174.875C52.9726 174.841 53.0139 174.814 53.0592 174.796C53.1046 174.777 53.1531 174.769 53.2019 174.769C53.3957 174.769 53.5882 174.769 53.782 174.769C54.0837 174.769 54.3952 174.769 54.6896 174.757C54.7379 174.756 54.786 174.764 54.8311 174.781C54.8763 174.799 54.9176 174.825 54.9526 174.858C54.9877 174.891 55.0159 174.931 55.0356 174.975C55.0553 175.019 55.066 175.066 55.0673 175.115C55.0686 175.163 55.0604 175.211 55.0431 175.256C55.0258 175.301 54.9998 175.342 54.9665 175.377C54.9333 175.412 54.8934 175.44 54.8493 175.46C54.8051 175.48 54.7575 175.491 54.7092 175.492C54.4014 175.499 54.0899 175.504 53.782 175.504C53.5846 175.504 53.3871 175.504 53.1897 175.504C53.0931 175.502 53.0011 175.463 52.9334 175.394C52.8658 175.326 52.8278 175.233 52.8279 175.137ZM53.9194 149.543C53.9194 149.446 53.9581 149.352 54.0271 149.283C54.0962 149.215 54.1897 149.176 54.2873 149.176C54.7926 149.176 55.3053 149.189 55.8106 149.216C55.9081 149.221 55.9997 149.265 56.065 149.338C56.1303 149.41 56.1641 149.506 56.1589 149.603C56.1537 149.701 56.1099 149.792 56.0372 149.857C55.9645 149.922 55.8689 149.956 55.7713 149.951C55.2807 149.925 54.7803 149.912 54.2873 149.912C54.2389 149.912 54.191 149.902 54.1462 149.884C54.1015 149.865 54.0609 149.838 54.0267 149.804C53.9925 149.77 53.9655 149.729 53.947 149.684C53.9286 149.639 53.9192 149.592 53.9194 149.543ZM54.5584 246.251C54.5586 246.173 54.5839 246.096 54.6307 246.033C54.6775 245.97 54.7433 245.924 54.8184 245.901C54.8936 245.878 54.9741 245.879 55.0482 245.905C55.1224 245.931 55.1862 245.98 55.2304 246.045L56.0742 247.285C56.128 247.365 56.1478 247.463 56.1294 247.558C56.111 247.653 56.0559 247.737 55.976 247.791C55.8962 247.846 55.798 247.867 55.7027 247.85C55.6075 247.833 55.5228 247.779 55.4672 247.7C55.1834 247.286 54.9014 246.871 54.6209 246.455C54.5797 246.394 54.558 246.322 54.5584 246.249V246.251ZM57.5496 250.57C57.5494 250.492 57.5741 250.416 57.6202 250.353C57.6662 250.29 57.7312 250.243 57.8057 250.219C57.8802 250.195 57.9603 250.196 58.0345 250.221C58.1086 250.245 58.1729 250.293 58.2181 250.357C58.5067 250.765 58.7969 251.173 59.0888 251.582C59.117 251.621 59.1372 251.665 59.1482 251.712C59.1592 251.759 59.1608 251.808 59.1529 251.856C59.1451 251.903 59.1279 251.949 59.1024 251.99C59.0769 252.031 59.0435 252.066 59.0042 252.095C58.9649 252.123 58.9204 252.143 58.8734 252.154C58.8263 252.165 58.7775 252.166 58.7297 252.159C58.682 252.151 58.6363 252.134 58.5952 252.108C58.5542 252.083 58.5185 252.049 58.4903 252.01C58.1984 251.602 57.9074 251.194 57.6171 250.786C57.5725 250.723 57.5489 250.647 57.5496 250.57ZM58.077 174.823C58.0762 174.734 58.108 174.647 58.1664 174.58C58.2249 174.512 58.306 174.468 58.3947 174.456C58.8852 174.388 59.3758 174.309 59.8664 174.219C59.9141 174.21 59.9631 174.211 60.0106 174.221C60.0581 174.23 60.1032 174.25 60.1433 174.277C60.1834 174.304 60.2177 174.339 60.2442 174.38C60.2707 174.42 60.2889 174.466 60.2977 174.514C60.3065 174.561 60.3058 174.61 60.2956 174.657C60.2854 174.705 60.2659 174.75 60.2382 174.79C60.2105 174.829 60.1753 174.863 60.1344 174.89C60.0935 174.916 60.0479 174.934 60.0001 174.942C59.5095 175.033 59.0018 175.115 58.4989 175.187C58.4023 175.2 58.3044 175.175 58.2267 175.116C58.149 175.057 58.0978 174.97 58.0844 174.873C58.0808 174.858 58.0783 174.842 58.077 174.826V174.823ZM59.1526 150.033C59.1528 150.01 59.1549 149.986 59.1587 149.963C59.1772 149.868 59.2328 149.783 59.3136 149.729C59.3943 149.674 59.4934 149.654 59.5892 149.672C60.0872 149.765 60.5875 149.874 61.0781 149.995C61.1266 150.005 61.1726 150.025 61.2133 150.053C61.254 150.081 61.2886 150.117 61.3149 150.159C61.3413 150.201 61.359 150.248 61.3669 150.296C61.3748 150.345 61.3727 150.395 61.3608 150.443C61.3489 150.491 61.3274 150.536 61.2977 150.576C61.2679 150.615 61.2305 150.648 61.1876 150.673C61.1447 150.698 61.0972 150.714 61.0481 150.72C60.9989 150.726 60.9491 150.722 60.9015 150.708C60.4244 150.585 59.9363 150.485 59.4519 150.393C59.3679 150.377 59.292 150.332 59.2374 150.267C59.1828 150.201 59.1528 150.118 59.1526 150.033ZM63.2121 173.695C63.212 173.617 63.237 173.54 63.2836 173.477C63.3302 173.414 63.3958 173.367 63.4709 173.344C63.9455 173.198 64.4202 173.04 64.8813 172.875C64.9276 172.855 64.9776 172.844 65.0282 172.844C65.0788 172.844 65.1288 172.854 65.1752 172.874C65.2217 172.894 65.2634 172.924 65.298 172.96C65.3325 172.997 65.359 173.041 65.3759 173.089C65.3928 173.136 65.3997 173.187 65.3962 173.237C65.3927 173.287 65.3788 173.337 65.3554 173.381C65.332 173.426 65.2996 173.466 65.2602 173.497C65.2208 173.529 65.1754 173.552 65.1266 173.566C64.6544 173.736 64.1688 173.897 63.6843 174.047C63.638 174.061 63.5894 174.066 63.5412 174.061C63.493 174.057 63.4461 174.042 63.4034 174.02C63.3607 173.997 63.3229 173.966 63.2922 173.929C63.2614 173.891 63.2384 173.848 63.2244 173.802C63.215 173.767 63.2109 173.73 63.2121 173.694V173.695ZM64.1933 151.495C64.1934 151.449 64.2021 151.403 64.219 151.359C64.2369 151.314 64.2634 151.273 64.2971 151.239C64.3308 151.204 64.371 151.176 64.4155 151.157C64.4599 151.138 64.5077 151.128 64.556 151.127C64.6044 151.127 64.6524 151.136 64.6973 151.154C65.1683 151.341 65.6393 151.544 66.0967 151.757C66.1411 151.777 66.1811 151.806 66.2144 151.841C66.2477 151.877 66.2735 151.919 66.2905 151.964C66.3075 152.01 66.3153 152.058 66.3133 152.107C66.3114 152.155 66.2998 152.203 66.2793 152.247C66.2588 152.291 66.2297 152.331 66.1937 152.364C66.1577 152.396 66.1156 152.422 66.0697 152.438C66.0239 152.454 65.9752 152.462 65.9266 152.459C65.878 152.457 65.8303 152.444 65.7864 152.423C65.3412 152.216 64.8838 152.019 64.4251 151.837C64.3576 151.809 64.3 151.761 64.2598 151.7C64.2196 151.639 64.1986 151.567 64.1994 151.494L64.1933 151.495ZM68.0799 171.715C68.0796 171.649 68.0973 171.584 68.1313 171.526C68.1652 171.469 68.2139 171.422 68.2724 171.391C68.7139 171.153 69.1407 170.901 69.5418 170.641C69.5818 170.609 69.6282 170.585 69.6779 170.572C69.7276 170.559 69.7796 170.556 69.8305 170.564C69.8813 170.572 69.9299 170.591 69.9731 170.619C70.0163 170.647 70.0531 170.683 70.0813 170.726C70.1094 170.769 70.1281 170.818 70.1363 170.869C70.1445 170.919 70.1419 170.971 70.1287 171.021C70.1156 171.071 70.0921 171.117 70.0599 171.157C70.0277 171.197 69.9874 171.23 69.9416 171.254C69.5246 171.524 69.0831 171.786 68.622 172.034C68.5362 172.08 68.4357 172.09 68.3423 172.062C68.249 172.035 68.1705 171.971 68.124 171.885C68.0953 171.833 68.0801 171.775 68.0799 171.715ZM68.8525 153.928C68.8526 153.861 68.8711 153.796 68.9059 153.738C68.9408 153.681 68.9906 153.634 69.0501 153.603C69.1096 153.572 69.1765 153.558 69.2435 153.562C69.3105 153.567 69.375 153.589 69.4302 153.627C69.8533 153.92 70.2654 154.231 70.6566 154.55C70.6939 154.581 70.7248 154.619 70.7474 154.662C70.7701 154.704 70.7842 154.751 70.7888 154.799C70.7934 154.847 70.7885 154.895 70.7743 154.942C70.7602 154.988 70.7371 155.031 70.7063 155.068C70.6755 155.105 70.6377 155.136 70.595 155.159C70.5523 155.181 70.5056 155.195 70.4575 155.2C70.4094 155.204 70.3608 155.2 70.3146 155.185C70.2684 155.171 70.2254 155.148 70.1881 155.117C69.8202 154.81 69.4191 154.511 69.0132 154.231C68.9638 154.197 68.9234 154.152 68.8954 154.099C68.8674 154.047 68.8527 153.988 68.8525 153.928ZM72.2375 168.541C72.237 168.451 72.2707 168.363 72.3319 168.296C72.6544 167.936 72.9504 167.554 73.2174 167.151C73.2728 167.074 73.3562 167.021 73.4499 167.003C73.5437 166.986 73.6405 167.006 73.72 167.058C73.7996 167.111 73.8555 167.192 73.8762 167.285C73.8968 167.378 73.8805 167.475 73.8306 167.557C73.5435 167.987 73.2254 168.397 72.8789 168.781C72.8293 168.837 72.7639 168.876 72.6914 168.894C72.6189 168.911 72.5427 168.907 72.473 168.88C72.4033 168.853 72.3433 168.806 72.301 168.745C72.2587 168.684 72.2362 168.611 72.2363 168.536L72.2375 168.541ZM72.6349 157.546C72.6349 157.468 72.6595 157.393 72.7051 157.33C72.7506 157.268 72.8149 157.221 72.8886 157.197C72.9623 157.173 73.0417 157.173 73.1155 157.196C73.1894 157.22 73.2538 157.267 73.2996 157.329C73.6044 157.747 73.8817 158.184 74.1299 158.638C74.1764 158.724 74.1869 158.825 74.1591 158.918C74.1313 159.011 74.0674 159.09 73.9815 159.136C73.8956 159.183 73.7948 159.193 73.7012 159.166C73.6076 159.138 73.5289 159.074 73.4823 158.988C73.2504 158.564 72.9906 158.154 72.7048 157.764C72.661 157.7 72.6387 157.623 72.641 157.546H72.6349ZM74.4745 163.877C74.4733 163.861 74.4733 163.846 74.4745 163.83L74.4868 163.725C74.536 163.286 74.5455 162.844 74.515 162.404C74.5082 162.306 74.5404 162.21 74.6046 162.136C74.6687 162.063 74.7596 162.017 74.8572 162.011C74.9548 162.004 75.0511 162.036 75.1249 162.1C75.1987 162.164 75.244 162.255 75.2509 162.352C75.2838 162.837 75.2731 163.323 75.219 163.806L75.2055 163.922C75.1995 164.02 75.1549 164.111 75.0817 164.175C75.0084 164.24 74.9125 164.273 74.8149 164.267C74.7173 164.261 74.6261 164.216 74.5613 164.143C74.4966 164.07 74.4636 163.974 74.4696 163.877H74.4745Z" fill="#0279A8"/>
</svg>
